<svg viewBox="0 0 96 96" xmlns="http://www.w3.org/2000/svg" xmlns:xlink="http://www.w3.org/1999/xlink" id="Icons_Abacus1" overflow="hidden"><path d="M85.006 15 11.006 15C8.79686 15 7.006 16.7909 7.006 19L7.006 77C7.006 79.2091 8.79686 81 11.006 81L85.006 81C87.2151 81 89.006 79.2091 89.006 77L89.006 19C89.006 16.7909 87.2151 15 85.006 15ZM83.006 39 74.006 39 74.006 37C76.2151 37 78.006 35.2091 78.006 33 78.006 30.7909 76.2151 29 74.006 29L74.006 21 83.006 21ZM70.006 53 70.006 65C67.7969 65 66.006 66.7909 66.006 69 66.006 71.2091 67.7969 73 70.006 73L70.006 75 58.006 75 58.006 73C60.2151 73 62.006 71.2091 62.006 69 62.006 66.7909 60.2151 65 58.006 65L58.006 63C60.2151 63 62.006 61.2091 62.006 59 62.006 56.7909 60.2151 55 58.006 55L58.006 43 70.006 43 70.006 45C67.7969 45 66.006 46.7909 66.006 49 66.006 51.2091 67.7969 53 70.006 53ZM26.006 65 26.006 63C28.2151 63 30.006 61.2091 30.006 59 30.006 56.7909 28.2151 55 26.006 55L26.006 43 38.006 43 38.006 45C35.7969 45 34.006 46.7909 34.006 49 34.006 51.2091 35.7969 53 38.006 53L38.006 55C35.7969 55 34.006 56.7909 34.006 59 34.006 61.2091 35.7969 63 38.006 63L38.006 75 26.006 75 26.006 73C28.2151 73 30.006 71.2091 30.006 69 30.006 66.7909 28.2151 65 26.006 65ZM26.006 23 26.006 21 38.006 21 38.006 29C35.7969 29 34.006 30.7909 34.006 33 34.006 35.2091 35.7969 37 38.006 37L38.006 39 26.006 39 26.006 31C28.2151 31 30.006 29.2091 30.006 27 30.006 24.7909 28.2151 23 26.006 23ZM54.006 31 54.006 39 42.006 39 42.006 37C44.2151 37 46.006 35.2091 46.006 33 46.006 30.7909 44.2151 29 42.006 29L42.006 21 54.006 21 54.006 23C51.7969 23 50.006 24.7909 50.006 27 50.006 29.2091 51.7969 31 54.006 31ZM42.006 63C44.2151 63 46.006 61.2091 46.006 59 46.006 56.7909 44.2151 55 42.006 55L42.006 53C44.2151 53 46.006 51.2091 46.006 49 46.006 46.7909 44.2151 45 42.006 45L42.006 43 54.006 43 54.006 55C51.7969 55 50.006 56.7909 50.006 59 50.006 61.2091 51.7969 63 54.006 63L54.006 65C51.7969 65 50.006 66.7909 50.006 69 50.006 71.2091 51.7969 73 54.006 73L54.006 75 42.006 75ZM58.006 39 58.006 31C60.2151 31 62.006 29.2091 62.006 27 62.006 24.7909 60.2151 23 58.006 23L58.006 21 70.006 21 70.006 29C67.7969 29 66.006 30.7909 66.006 33 66.006 35.2091 67.7969 37 70.006 37L70.006 39ZM22.006 21 22.006 23C19.7969 23 18.006 24.7909 18.006 27 18.006 29.2091 19.7969 31 22.006 31L22.006 39 13.006 39 13.006 21ZM13.006 43 22.006 43 22.006 55C19.7969 55 18.006 56.7909 18.006 59 18.006 61.2091 19.7969 63 22.006 63L22.006 65C19.7969 65 18.006 66.7909 18.006 69 18.006 71.2091 19.7969 73 22.006 73L22.006 75 13.006 75ZM74.006 75 74.006 73C76.2151 73 78.006 71.2091 78.006 69 78.006 66.7909 76.2151 65 74.006 65L74.006 53C76.2151 53 78.006 51.2091 78.006 49 78.006 46.7909 76.2151 45 74.006 45L74.006 43 83.006 43 83.006 75Z" fill="#56676E"/></svg>