<svg viewBox="0 0 96 96" xmlns="http://www.w3.org/2000/svg" xmlns:xlink="http://www.w3.org/1999/xlink" id="Icons_Astronaut" overflow="hidden"><style>
.MsftOfcThm_MainLight1_Fill {
 fill:#FFFFFF; 
}
.MsftOfcThm_Accent4_Stroke {
 stroke:#D0CECE; 
}
</style>
<path d="M69 24.5 69 24.5C69.6726 26.6007 70.0101 28.7943 70 31L70 39C70.0576 44.0579 68.1045 48.9316 64.57 52.55 69.6851 53.9394 74.5532 56.1153 79 59L79 34.5C79 28.9772 74.5229 24.5 69 24.5Z" class="MsftOfcThm_MainLight1_Fill MsftOfcThm_Accent4_Stroke" stroke="#D0CECE" stroke-width="2.90909" fill="#FFFFFF"/><path d="M26 39 26 31C25.9899 28.7943 26.3274 26.6007 27 24.5L27 24.5C21.4772 24.5 17 28.9772 17 34.5L17 59.06C21.5111 56.2763 26.3652 54.0913 31.44 52.56 27.8918 48.9457 25.9335 44.0644 26 39Z" class="MsftOfcThm_MainLight1_Fill MsftOfcThm_Accent4_Stroke" stroke="#D0CECE" stroke-width="2.90909" fill="#FFFFFF"/><path d="M48 12C37 12 28 20 28 31L28 39C28 50 37 57 48 57 59 57 68 50 68 39L68 31C68 20 59.05 12 48 12ZM64.5 38.19C64.4931 39.1348 64.3893 40.0764 64.19 41 64.0046 42.0297 63.7061 43.0358 63.3 44L56.89 44C56.5349 43.3849 55.8802 43.0043 55.17 43L53.17 43C52.0654 43 51.17 43.8954 51.17 45 51.17 46.1046 52.0654 47 53.17 47L55.17 47C55.8802 46.9957 56.5349 46.6151 56.89 46L62.28 46C59.2676 50.6461 54.0766 53.4154 48.54 53.33L48 53.33 47.47 53.33C40.14 53.33 33.22 48.65 31.82 41.03 31.6596 40.0904 31.556 39.142 31.51 38.19L31.51 35.09C31.51 34.88 31.51 34.69 31.51 34.49 31.18 23 38.18 23.71 48 23.71 57.82 23.71 64.83 23 64.48 34.49 64.48 34.69 64.48 34.88 64.48 35.09Z" class="MsftOfcThm_MainLight1_Fill MsftOfcThm_Accent4_Stroke" stroke="#D0CECE" stroke-width="2.90909" fill="#FFFFFF"/><path d="M83.29 68C82.8042 65.4414 81.3769 63.1579 79.29 61.6 74.64 58.1 68.75 55.74 62.84 54.14 58.5927 57.4056 53.3563 59.1205 48 59 42.6536 59.1161 37.4281 57.4013 33.19 54.14 27.3467 55.75 21.7925 58.2673 16.73 61.6 14.599 63.1169 13.1597 65.4198 12.73 68L11 82 85 82ZM64.07 76.25C63.1063 76.2457 62.1697 75.93 61.4 75.35 62.53 75 63.73 74.54 65 74 66.27 73.46 67.49 72.88 68.56 72.3 68.2685 74.5579 66.3466 76.2486 64.07 76.25ZM64.69 72.93C62.2141 74.0878 59.5661 74.8342 56.85 75.14 56.29 75.14 55.93 75.03 55.85 74.8 55.61 74.18 57.13 72.91 59.6 71.56 59.5894 71.4569 59.5894 71.3531 59.6 71.25 59.5612 68.7374 61.5667 66.6691 64.0793 66.6304 64.0895 66.6302 64.0998 66.6301 64.11 66.63 65.4387 66.627 66.6983 67.2219 67.54 68.25 68.7486 67.841 70.0064 67.5955 71.28 67.52 71.84 67.52 72.28 67.52 72.39 67.78 72.71 68.67 69.23 71 64.69 72.93Z" class="MsftOfcThm_MainLight1_Fill MsftOfcThm_Accent4_Stroke" stroke="#D0CECE" stroke-width="2.90909" fill="#FFFFFF"/></svg>