<svg viewBox="0 0 96 96" xmlns="http://www.w3.org/2000/svg" xmlns:xlink="http://www.w3.org/1999/xlink" id="Icons_Pilot" overflow="hidden"><style>
.MsftOfcThm_MainLight1_Fill {
 fill:#FFFFFF; 
}
.MsftOfcThm_Accent4_Stroke {
 stroke:#D0CECE; 
}
</style>
<path d="M76.8 59.58C72.6751 56.4091 67.9951 54.0352 63 52.58L52 72 51.88 72 50.88 58 45.09 58 44.09 72 44 72 33 52.54C28.071 54.1659 23.4153 56.5258 19.19 59.54 17.2046 61.1002 16.0319 63.4751 16 66L16 82 80 82 80 66C79.9537 63.4875 78.7784 61.1295 76.8 59.58ZM73 71 63 71 63 69 73 69Z" class="MsftOfcThm_MainLight1_Fill MsftOfcThm_Accent4_Stroke" stroke="#D0CECE" stroke-width="2.90909" fill="#FFFFFF"/><path d="M63.33 30.19 63.22 30.26 63.1 30.32C58.6318 32.6652 53.6562 33.8773 48.61 33.85 42.8965 33.8 37.2649 32.4852 32.12 30L32.05 30C32.05 30.36 32.05 30.71 32.05 31.07 32.05 39.9066 39.2134 47.07 48.05 47.07 56.8866 47.07 64.05 39.9066 64.05 31.07 64.05 30.67 64.05 30.28 63.99 29.89Z" class="MsftOfcThm_MainLight1_Fill MsftOfcThm_Accent4_Stroke" stroke="#D0CECE" stroke-width="2.90909" fill="#FFFFFF"/><path d="M72 12 51.07 6.4C49.0818 5.86648 46.9882 5.86648 45 6.4L24 12C23.4674 12.1463 23.1543 12.6966 23.3006 13.2292 23.353 13.4198 23.4606 13.5906 23.61 13.72L30.22 19.34 30.22 22.77C30.2211 24.1917 30.92 25.5223 32.09 26.33L33.38 27.22C43.5 32 53.5 32 61.71 27.67L63.78 26.33C65.023 25.5364 65.7767 24.1648 65.78 22.69L65.78 19.35 72.39 13.73C72.8116 13.3732 72.8641 12.7422 72.5073 12.3207 72.375 12.1644 72.198 12.0524 72 12ZM42.82 12.48C43.7015 12.4756 44.5773 12.621 45.41 12.91 46.3338 11.4685 48.2512 11.0489 49.6927 11.9727 50.0691 12.2139 50.3888 12.5336 50.63 12.91 51.4627 12.621 52.3385 12.4756 53.22 12.48L61 12.48 60.31 12.88C59.6648 13.2585 58.9373 13.4747 58.19 13.51 55.6879 13.5725 53.2165 14.0769 50.89 15 50.318 16.5961 48.5603 17.4263 46.9642 16.8542 46.1 16.5445 45.4197 15.8642 45.11 15 42.7804 14.094 40.3091 13.6065 37.81 13.56 37.0628 13.5247 36.3352 13.3085 35.69 12.93L35 12.53ZM63 23 33 23 33 20 63 20Z" class="MsftOfcThm_MainLight1_Fill MsftOfcThm_Accent4_Stroke" stroke="#D0CECE" stroke-width="2.90909" fill="#FFFFFF"/><path d="M51.06 55.98 53 49.98 43 49.98 44.94 55.98 51.06 55.98Z" class="MsftOfcThm_MainLight1_Fill MsftOfcThm_Accent4_Stroke" stroke="#D0CECE" stroke-width="2.90909" fill="#FFFFFF"/></svg>