<svg viewBox="0 0 96 96" xmlns="http://www.w3.org/2000/svg" xmlns:xlink="http://www.w3.org/1999/xlink" id="Icons_HeroMale" overflow="hidden"><style>
.MsftOfcThm_MainLight1_Fill {
 fill:#FFFFFF; 
}
.MsftOfcThm_Accent4_Stroke {
 stroke:#D0CECE; 
}
</style>
<path d="M67.6 23C72 23 75.6 19.4 75.6 15 75.6 10.6 72 7 67.6 7 63.2 7 59.6 10.6 59.6 15 59.6 19.4 63.1 23 67.6 23Z" class="MsftOfcThm_MainLight1_Fill MsftOfcThm_Accent4_Stroke" stroke="#D0CECE" stroke-width="2.06452" fill="#FFFFFF"/><path d="M26.9 69.1C26.9 69.2 27 69.2 27 69.2 27 69.2 27 69.2 27.1 69.2L29.8 64.3 36.7 51 36.1 50.5C35.1 49.6 34.4 48.4 34.1 47.1L32.1 36.1C31.6 33.5 32.9 31 35.2 29.7L47.3 23.2C47.4 23.2 47.4 23.1 47.4 23.1L47.3 23 47.3 23C43.8 23.3 40.4 24 37 25.1L2 35.8C2 52.1 10.4 53.1 17.7 56.3 23.6 58.9 26 64.2 26.9 69.1Z" class="MsftOfcThm_MainLight1_Fill MsftOfcThm_Accent4_Stroke" stroke="#D0CECE" stroke-width="2.06452" fill="#FFFFFF"/><path d="M61 68.1C61 67.9 61 67.8 61 67.6 61 66.8 60.7 66.2 60.2 65.5L60.1 65.4 54 55 55.7 53.2C54.7 52.9 53.6 52.5 52.4 52L52.1 52.5C51.8 53 51.2 53.1 50.7 52.9L47.4 51C46.9 50.7 46.8 50.1 47 49.6L47.2 49.3C46 48.6 44.9 47.8 43.8 46.9 43.9 46.4 43.9 45.8 43.8 45.3L43.4 42.4C45 44 46.7 45.5 48.6 46.7L48.7 46.5C49 46 49.6 45.9 50.1 46.1L53.4 48C53.8 48.3 54 48.8 53.8 49.3 55.1 49.9 56.5 50.3 57.9 50.7L67.3 40.7 92.7 18C94.3 16.5 94.5 14 93 12.4 91.5 10.8 89 10.6 87.4 12.1L71.4 26.3C65.8 24 59.8 22.8 53.7 22.8 52.8 22.8 51.9 23.1 51.1 23.5L36.1 31.5C34.6 32.3 33.7 34 34 35.7L36 46.7C36.3 48.4 37.7 49.7 39.4 49.9L31.5 65.2 21.5 83C20.4 84.9 21 87.4 23 88.5 25 89.6 27.4 89 28.5 87L28.5 86.9 43.6 60 51.7 68.2 42.7 80.5C41.4 82.3 41.9 84.8 43.7 86.1 45.5 87.3 47.9 86.9 49.2 85.2L60.2 70.1C60.7 69.6 60.9 68.9 61 68.1ZM43.4 42.2 42.4 37.2 47.5 34.5 43.4 42.2Z" class="MsftOfcThm_MainLight1_Fill MsftOfcThm_Accent4_Stroke" stroke="#D0CECE" stroke-width="2.06452" fill="#FFFFFF"/></svg>