<svg viewBox="0 0 96 96" xmlns="http://www.w3.org/2000/svg" xmlns:xlink="http://www.w3.org/1999/xlink" id="Icons_ParentAndChild" overflow="hidden"><style>
.MsftOfcThm_MainLight1_Fill {
 fill:#FFFFFF; 
}
.MsftOfcThm_Accent4_Stroke {
 stroke:#D0CECE; 
}
</style>
<g><circle cx="38.1" cy="15" r="7" class="MsftOfcThm_MainLight1_Fill MsftOfcThm_Accent4_Stroke" stroke="#D0CECE" stroke-width="2.46154" fill="#FFFFFF"/><path d="M56 53.4 51.3 29.8C49.4 27.7 47 26.1 44.2 25.1 42.3 24.4 40.2 24 38 24 35.8 24 33.8 24.4 31.8 25.1 29.1 26.1 26.7 27.7 24.7 29.8L20 53.4C19.7 55 20.7 56.6 22.4 56.9 22.6 56.9 22.8 57 23 57 24.4 57 25.7 56 25.9 54.6L30.1 34.3 30.1 88 36.1 88 36.1 57 40.1 57 40.1 88 46.1 88 46.1 34.3 50.2 54.6C50.4 56 51.7 57 53.1 57 53.3 57 53.5 57 53.7 56.9 55.3 56.6 56.4 55 56 53.4Z" class="MsftOfcThm_MainLight1_Fill MsftOfcThm_Accent4_Stroke" stroke="#D0CECE" stroke-width="2.46154" fill="#FFFFFF"/><circle cx="65.1" cy="56" r="5" class="MsftOfcThm_MainLight1_Fill MsftOfcThm_Accent4_Stroke" stroke="#D0CECE" stroke-width="2.46154" fill="#FFFFFF"/><path d="M75.9 74.2 72.4 65.8C71.2 64.1 69.3 62.8 67.2 62.2 66.6 62.1 65.8 62 65.1 62L60.1 62 54.8 53C54.2 52 53 51.7 52.1 52.3 51.1 52.9 50.8 54.1 51.4 55L60.1 69.8 60.1 88 64.1 88 64.1 76 66.1 76 66.1 88 70.1 88 70.1 70.6 72.3 75.8C72.6 76.6 73.4 77 74.1 77 74.4 77 74.6 77 74.9 76.8 75.9 76.4 76.4 75.2 75.9 74.2Z" class="MsftOfcThm_MainLight1_Fill MsftOfcThm_Accent4_Stroke" stroke="#D0CECE" stroke-width="2.46154" fill="#FFFFFF"/></g></svg>