<svg viewBox="0 0 96 96" xmlns="http://www.w3.org/2000/svg" xmlns:xlink="http://www.w3.org/1999/xlink" id="Icons_Help_LTR_M" overflow="hidden"><style>
.MsftOfcThm_Text2_Stroke_v2 {
 stroke:#31B672; 
}
</style>
<g id="Icons"><path d="M47.979 12C67.8497 12 83.958 28.1083 83.958 47.979 83.958 67.8497 67.8497 83.958 47.979 83.958 28.1083 83.958 12 67.8497 12 47.979 12.0226 28.1177 28.1177 12.0226 47.979 12M47.979 10C27.0038 10 10 27.0038 10 47.979 10 68.9542 27.0038 85.958 47.979 85.958 68.9542 85.958 85.958 68.9542 85.958 47.979 85.9674 27.0132 68.9788 10.0094 48.013 10 48.0017 10 47.9903 10 47.979 10Z" class="MsftOfcThm_Text2_Stroke_v2" stroke="#31B672"/><path d="M48.979 62 46.979 62 46.979 50.327 47.979 50.327C54.697 50.3276 60.1434 44.882 60.144 38.164 60.1446 31.446 54.699 25.9996 47.981 25.999 41.263 25.9984 35.8166 31.444 35.816 38.162 35.816 38.1623 35.816 38.1627 35.816 38.163L33.816 38.163C33.8162 30.3404 40.1577 23.9991 47.9803 23.9993 55.8028 23.9994 62.1441 30.341 62.144 38.1635 62.1439 45.5983 56.3953 51.7676 48.979 52.292Z" class="MsftOfcThm_Text2_Stroke_v2" stroke="#31B672"/><circle cx="48" cy="69" r="2" class="MsftOfcThm_Text2_Stroke_v2" stroke="#31B672"/></g></svg>