<svg viewBox="0 0 96 96" xmlns="http://www.w3.org/2000/svg" xmlns:xlink="http://www.w3.org/1999/xlink" id="Icons_PerfumeBottle" overflow="hidden"><style>
.MsftOfcThm_MainDark1_Fill {
 fill:#22354B; 
}
</style>
<path d="M79.349 56.532C85.4522 48.2884 86.4511 37.3302 81.939 28.119 77.5825 18.8334 68.4138 12.75 58.165 12.345L49.644 11.937 49.644 8C49.644 7.44772 49.1963 7 48.644 7L37.744 7C37.1917 7 36.744 7.44772 36.744 8L36.744 12.639 33.792 12.639C32.6874 12.639 31.792 13.5344 31.792 14.639 31.792 15.7436 32.6874 16.639 33.792 16.639L36.747 16.639 36.747 19.818C36.747 20.3703 37.1947 20.818 37.747 20.818L48.647 20.818C49.1993 20.818 49.647 20.3703 49.647 19.818L49.647 17.944 57.881 18.338C69.9296 18.9165 79.2279 29.1528 78.6493 41.2014 78.4465 45.4243 77.0225 49.4976 74.55 52.927 70.331 51.522 64.325 53.469 59.63 58.164 54.708 63.087 52.811 69.447 54.63 73.68 52.7545 72.9129 50.6122 73.8114 49.8451 75.6869 49.6756 76.1014 49.5834 76.5434 49.573 76.991 37.173 82.034 24.066 77.572 14.68 72.764 13.7749 72.3031 12.6676 72.6632 12.2067 73.5682 11.9904 73.993 11.9475 74.4852 12.087 74.941L14.332 82.341C14.8388 84.0051 16.0979 85.3345 17.732 85.931 22.6422 87.7657 27.8281 88.7541 33.069 88.854 40.016 88.869 47.527 86.954 52.353 80.654 54.298 81.1711 56.2938 80.0135 56.8109 78.0686 56.8957 77.7497 56.9367 77.4209 56.933 77.091 56.9285 76.9092 56.9101 76.728 56.878 76.549 60.994 79.558 68.294 77.815 73.79 72.319 78.59 67.519 80.525 61.341 78.931 57.112Z" fill="#22354B"/><path d="M27.445 67.735C27.418 67.815 27.377 67.888 27.355 67.971 26.7832 70.1049 28.0495 72.2982 30.1833 72.87 30.1846 72.8704 30.1858 72.8707 30.187 72.871 34.5805 74.0373 39.1105 74.609 43.656 74.571 45.9623 74.5783 48.2668 74.4411 50.556 74.16 49.8547 71.8272 49.7542 69.355 50.264 66.973 51.2657 62.541 53.5369 58.4969 56.8 55.335 59.8727 52.1902 63.7596 49.9622 68.026 48.9 66.559 43.516 62.167 40.284 58.042 37.077 54.319 34.177 51.491 31.306 50.754 26.877 50.5502 25.5207 49.3915 24.5133 48.02 24.5L38.37 24.5C36.9995 24.513 35.8411 25.5189 35.636 26.874 34.899 31.299 32.071 34.174 28.349 37.074 23.302 40.997 17.849 44.954 17.849 52.848 17.851 59.836 21.654 63.756 27.445 67.735ZM29.054 46.446C29.7863 44.5782 30.9216 42.8948 32.379 41.516L32.479 41.416C33.0743 40.8399 34.0239 40.8555 34.6 41.4508 35.155 42.0243 35.1638 42.9319 34.62 43.516L34.52 43.616C33.3341 44.725 32.413 46.0866 31.825 47.6 31.1655 49.0186 30.8614 50.5765 30.939 52.139 30.9689 52.9646 30.3255 53.6589 29.5 53.692L29.441 53.692C28.6343 53.6926 27.9717 53.0551 27.941 52.249 27.8477 50.2539 28.2291 48.265 29.054 46.446Z" fill="#22354B"/></svg>