<svg viewBox="0 0 96 96" xmlns="http://www.w3.org/2000/svg" xmlns:xlink="http://www.w3.org/1999/xlink" id="Icons_Climbing" overflow="hidden"><circle cx="13" cy="43" r="7" id="_16x16_circle_head" fill="#56676E"/><path d="M12 7C10.778 8.3587 10.3946 10.2758 11 12 11.9 14.68 14 15 16 16 18 17 21.13 14.77 23 16 25.67 17.75 25.07 20.89 28 23 31.92 25.774 36.2817 27.8636 40.9 29.18 39.8557 29.215 38.9049 29.7908 38.39 30.7L34 38.54 29 42.65 29 27.33C29 25.6731 27.6569 24.33 26 24.33 24.3431 24.33 23 25.6731 23 27.33L23 45.26 21 47.41 20.76 47.65C20.7 47.71 20.66 47.78 20.6 47.84L20.5 48 20.5 48C18.2194 50.8946 18.5736 55.0618 21.31 57.53L33 68C33.3489 68.3053 33.7236 68.5796 34.12 68.82L33.37 69.82C30.97 69.75 26.91 71.47 27.37 73.04L28.84 77.67C29.5055 79.777 31.753 80.9455 33.86 80.28 35.967 79.6145 37.1355 77.367 36.47 75.26L35.07 70.85 35.82 69.85C36.1347 70.0188 36.4712 70.1433 36.82 70.22L52.54 73.49 62.72 83.05C64.3299 84.5633 66.8617 84.4849 68.375 82.875 69.8883 81.2651 69.8099 78.7333 68.2 77.22L57.2 66.89C56.6669 66.3826 56.0014 66.036 55.28 65.89L44.72 63.69 52.06 54.22 65.84 56C68.0326 56.2761 70.0339 54.7226 70.31 52.53 70.5861 50.3374 69.0326 48.3361 66.84 48.06L50.84 46.06C49.4371 45.8842 48.0456 46.4621 47.18 47.58L40.59 56 31.79 48.08 38.24 42.78C38.5388 42.5685 38.7964 42.3042 39 42L43.67 33.66C44.4 32.3398 44.0361 30.6828 42.82 29.79 44.13 30.19 45.53 30.59 47.05 31.03 55.76 33.52 62.94 33.1 67.05 39.03 68.39 40.96 72.17 44.33 72.05 51.2 71.98 55.67 68.86 56.47 70.05 59.03 71.39 61.86 75.31 63.71 79.05 67.03 82.79 70.35 84.13 76.03 84.05 80.03 83.99 83.03 83.05 86.03 85.05 88.03 86.4269 89.2684 88.1989 89.9772 90.05 90.03L90.05 7Z" fill="#56676E"/></svg>